<svg height="512pt" viewBox="0 -32 512 512" width="512pt" xmlns="http://www.w3.org/2000/svg">
<path d="m24 8h320c8.835938 0 16 7.164062 16 16v160h-352v-160c0-8.835938 7.164062-16 16-16zm0 0" fill="#fff"/>
<path d="m408 8h80c8.835938 0 16 7.164062 16 16v272h-112v-272c0-8.835938 7.164062-16 16-16zm0 0" fill="#fff"/>
<path d="m24 344h320c8.835938 0 16 7.164062 16 16v64c0 8.835938-7.164062 16-16 16h-320c-8.835938 0-16-7.164062-16-16v-64c0-8.835938 7.164062-16 16-16zm0 0" fill="#fff"/>
<path d="m440 344c17.671875 0 32 14.328125 32 32v32c0 17.671875-14.328125 32-32 32s-32-14.328125-32-32v-32c0-17.671875 14.328125-32 32-32zm0 0" fill="#fff"/>
<path d="m8 216c0 8.835938 7.164062 16 16 16h320c8.835938 0 16-7.164062 16-16v-48h-352zm0 0" fill="#fff"/>
<path d="m472 240c0 13.253906-10.746094 24-24 24s-24-10.746094-24-24 10.746094-24 24-24 24 10.746094 24 24zm0 0" fill="#fff"/>
<path d="m208 273.335938v-41.335938h-64v41.335938c-.003906 12.515624-10.148438 22.660156-22.664062 22.664062h109.328124c-12.515624-.003906-22.660156-10.148438-22.664062-22.664062zm0 0" fill="#fff"/>
<g fill="#000">
<path d="m48 72h-16v-40h40v16h-24zm0 0"/>
<path d="m336 384h-16v-16h16zm-32 0h-16v-16h16zm-32 0h-16v-16h16zm-32 0h-16v-16h16zm-32 0h-16v-16h16zm-32 0h-16v-16h16zm-32 0h-16v-16h16zm-32 0h-16v-16h16zm-32 0h-16v-16h16zm-32 0h-16v-16h16zm0 0"/>
<path d="m336 416h-16v-16h16zm-32 0h-16v-16h16zm-32 0h-16v-16h16zm-32 0h-16v-16h16zm-32 0h-16v-16h16zm-32 0h-16v-16h16zm-32 0h-16v-16h16zm-32 0h-16v-16h16zm-32 0h-16v-16h16zm-32 0h-16v-16h16zm0 0"/>
<path d="m416 32h64v16h-64zm0 0"/>
<path d="m416 64h64v16h-64zm0 0"/>
<path d="m416 96h64v16h-64zm0 0"/>
<path d="m336 144h-40v-16h24v-24h16zm0 0"/>
</g>
<path d="m488 0h-80c-13.253906 0-24 10.746094-24 24v280h128v-280c0-13.253906-10.746094-24-24-24zm8 288h-96v-264c0-4.417969 3.582031-8 8-8h80c4.417969 0 8 3.582031 8 8zm0 0"/>
<path d="m344 336h-320c-13.253906 0-24 10.746094-24 24v64c0 13.253906 10.746094 24 24 24h320c13.253906 0 24-10.746094 24-24v-64c0-13.253906-10.746094-24-24-24zm8 88c0 4.417969-3.582031 8-8 8h-320c-4.417969 0-8-3.582031-8-8v-64c0-4.417969 3.582031-8 8-8h320c4.417969 0 8 3.582031 8 8zm0 0"/>
<path d="m440 336c-22.082031.027344-39.972656 17.917969-40 40v32c0 22.089844 17.910156 40 40 40s40-17.910156 40-40v-32c-.027344-22.082031-17.917969-39.972656-40-40zm24 72c0 13.253906-10.746094 24-24 24s-24-10.746094-24-24v-32c.042969-10.132812 6.445312-19.148438 16-22.527344v30.527344h16v-30.527344c9.554688 3.378906 15.957031 12.394532 16 22.527344zm0 0"/>
<path d="m344 0h-320c-13.253906 0-24 10.746094-24 24v192c0 13.253906 10.746094 24 24 24h112v33.335938c-.007812 8.09375-6.570312 14.65625-14.664062 14.664062h-25.335938v16h160v-16h-25.335938c-8.09375-.007812-14.65625-6.570312-14.664062-14.664062v-33.335938h128c13.253906 0 24-10.746094 24-24v-192c0-13.253906-10.746094-24-24-24zm-195.742188 288c2.460938-4.496094 3.75-9.539062 3.742188-14.664062v-33.335938h16v34h16v-34h16v33.335938c-.007812 5.125 1.28125 10.167968 3.742188 14.664062zm203.742188-72c0 4.417969-3.582031 8-8 8h-320c-4.417969 0-8-3.582031-8-8v-40h336zm0-56h-336v-136c0-4.417969 3.582031-8 8-8h320c4.417969 0 8 3.582031 8 8zm0 0"/>
<path d="m456 209.136719v-17.136719h-16v17.136719c-15.601562 4.027343-25.777344 19.03125-23.746094 35.015625s15.632813 27.96875 31.746094 27.96875 29.714844-11.984375 31.746094-27.96875-8.144532-30.988282-23.746094-35.015625zm-8 46.863281c-7.230469.019531-13.570312-4.828125-15.445312-11.8125s1.179687-14.355469 7.445312-17.964844v13.777344h16v-13.777344c6.265625 3.609375 9.320312 10.980469 7.445312 17.964844s-8.214843 11.832031-15.445312 11.8125zm0 0"/>
<path d="m168 192h16v16h-16zm0 0"/>
</svg>